<?xml version="1.0" encoding="UTF-8" ?>
<!DOCTYPE svg PUBLIC "-//W3C//DTD SVG 1.1//EN" "http://www.w3.org/Graphics/SVG/1.1/DTD/svg11.dtd">
<svg width="1450pt" height="350pt" viewBox="0 0 1450 350" version="1.1" xmlns="http://www.w3.org/2000/svg">
<g id="#ffffffff">
</g>
<g id="#616064ff">
<path fill="#616064" opacity="1.00" d=" M 300.71 36.96 C 326.68 94.76 352.58 152.60 378.39 210.48 C 366.00 210.24 353.61 210.53 341.21 210.37 C 337.61 201.63 333.62 193.03 329.66 184.44 C 310.34 184.86 291.01 184.56 271.69 184.60 C 267.95 193.26 263.93 201.81 260.14 210.45 C 247.91 210.37 235.68 210.42 223.46 210.38 C 248.82 152.41 275.12 94.84 300.71 36.96 M 300.67 118.80 C 295.65 130.74 290.08 142.46 285.34 154.52 C 295.61 154.29 305.89 154.54 316.16 154.39 C 311.22 142.44 306.25 130.47 300.67 118.80 Z" />
<path fill="#616064" opacity="1.00" d=" M 106.99 55.05 C 122.86 43.20 143.28 37.35 163.01 39.54 C 183.37 40.81 202.71 50.02 217.58 63.81 C 217.61 64.15 217.66 64.82 217.69 65.15 C 209.57 72.84 201.88 80.95 193.91 88.78 C 184.76 80.08 172.77 74.06 159.99 73.78 C 144.83 72.73 129.24 78.79 119.35 90.45 C 101.96 107.91 100.88 138.56 116.63 157.41 C 124.39 167.22 135.65 174.49 148.11 176.39 C 162.13 178.76 177.33 175.58 188.53 166.63 C 190.39 165.18 192.17 163.65 193.98 162.14 C 202.04 169.81 209.69 177.90 217.67 185.65 C 217.64 186.02 217.56 186.75 217.53 187.12 C 201.30 202.91 178.69 211.93 156.02 211.34 C 138.43 211.37 120.85 205.81 106.74 195.25 C 101.59 190.07 95.79 185.51 91.29 179.70 C 66.07 150.28 65.44 102.94 89.80 72.83 C 94.77 66.19 101.16 60.86 106.99 55.05 Z" />
<path fill="#616064" opacity="1.00" d=" M 1267.43 39.73 C 1286.82 37.57 1307.16 41.52 1323.58 52.32 C 1341.21 63.89 1355.37 81.46 1360.90 102.00 C 1366.67 123.49 1364.59 147.37 1353.57 166.88 C 1346.09 180.07 1335.16 191.30 1322.27 199.26 C 1302.08 211.67 1276.65 214.50 1253.97 208.04 C 1234.10 202.27 1216.67 188.85 1205.59 171.43 C 1192.62 151.85 1189.59 126.69 1195.00 104.07 C 1199.78 83.99 1212.86 66.60 1229.35 54.51 C 1240.55 46.49 1253.77 41.46 1267.43 39.73 M 1269.18 74.24 C 1253.30 77.12 1239.60 88.05 1232.12 102.19 C 1227.20 111.89 1225.84 123.15 1227.49 133.85 C 1230.67 156.21 1250.58 174.63 1272.94 176.80 C 1280.89 177.27 1289.06 176.51 1296.47 173.44 C 1315.25 166.22 1329.40 147.33 1329.37 126.96 C 1330.77 105.25 1315.94 84.48 1295.92 76.86 C 1287.45 73.59 1278.12 73.08 1269.18 74.24 Z" />
<path fill="#616064" opacity="1.00" d=" M 393.07 40.44 C 412.04 40.49 431.02 40.45 449.99 40.45 C 466.30 40.69 482.80 46.82 494.17 58.74 C 501.15 65.72 506.84 74.27 508.51 84.16 C 510.61 97.97 510.18 112.89 503.49 125.48 C 498.17 135.59 490.20 145.20 478.85 148.56 C 479.82 151.23 481.49 153.55 483.03 155.92 C 494.70 174.09 506.33 192.29 518.09 210.41 C 504.07 210.32 490.04 210.57 476.01 210.28 C 471.52 202.47 466.20 195.17 461.36 187.58 C 450.13 169.95 438.31 152.70 427.25 134.97 C 427.37 160.09 427.17 185.22 427.35 210.35 C 416.01 210.30 404.59 210.72 393.30 210.13 C 392.88 186.76 393.22 163.38 393.10 140.00 C 393.08 106.81 393.02 73.63 393.07 40.44 M 427.27 74.28 C 427.17 89.94 426.87 105.64 427.44 121.30 C 436.65 120.78 445.88 121.68 455.09 121.07 C 463.95 119.60 471.44 112.40 473.47 103.68 C 476.25 94.05 472.10 82.52 463.01 77.85 C 451.86 72.49 439.18 74.77 427.27 74.28 Z" />
<path fill="#616064" opacity="1.00" d=" M 526.32 40.61 C 538.32 40.04 550.35 40.62 562.36 40.32 C 575.97 71.46 589.44 102.66 602.96 133.85 C 606.90 123.14 612.11 112.93 616.37 102.34 C 625.45 81.74 634.28 61.02 643.36 40.41 C 655.54 40.38 667.72 40.37 679.90 40.39 C 666.72 70.56 653.22 100.59 639.91 130.70 L 639.01 129.40 C 638.48 130.39 638.01 131.41 637.55 132.42 L 639.58 131.01 C 633.59 145.78 626.66 160.17 620.49 174.88 C 614.41 187.88 608.99 201.19 602.85 214.17 C 577.47 156.26 551.90 98.43 526.32 40.61 Z" />
<path fill="#616064" opacity="1.00" d=" M 935.44 40.35 C 946.79 40.47 958.14 40.27 969.49 40.46 C 969.63 85.79 969.61 131.12 969.50 176.45 C 992.28 176.48 1015.06 176.47 1037.84 176.45 C 1037.80 187.76 1037.87 199.07 1037.79 210.38 C 1003.69 210.46 969.60 210.35 935.50 210.44 C 935.32 153.75 935.46 97.05 935.44 40.35 Z" />
<path fill="#616064" opacity="1.00" d=" M 1052.61 40.48 C 1063.97 40.27 1075.34 40.42 1086.70 40.44 C 1086.80 63.08 1086.79 85.72 1086.72 108.36 C 1105.70 108.59 1124.68 108.35 1143.67 108.49 C 1143.58 85.82 1143.67 63.15 1143.62 40.48 C 1154.94 40.29 1166.28 40.38 1177.60 40.44 C 1177.72 97.11 1177.66 153.78 1177.63 210.46 C 1166.32 210.35 1155.01 210.42 1143.70 210.42 C 1143.58 187.70 1143.62 164.98 1143.66 142.26 C 1124.68 142.38 1105.68 141.99 1086.70 142.45 C 1086.82 165.07 1086.74 187.69 1086.75 210.31 C 1075.38 210.45 1064.01 210.45 1052.65 210.35 C 1052.75 153.72 1052.81 97.10 1052.61 40.48 Z" />
</g>
<g id="#f26e35ff">
<path fill="#f26e35" opacity="1.00" d=" M 786.75 38.62 C 790.35 38.65 793.96 38.64 797.56 38.56 C 798.56 46.89 798.59 55.30 798.79 63.68 C 794.39 63.69 789.98 63.82 785.60 63.42 C 786.21 55.16 786.59 46.90 786.75 38.62 Z" />
<path fill="#f26e35" opacity="1.00" d=" M 830.21 38.59 C 831.91 38.59 833.63 38.59 835.36 38.58 C 855.60 93.07 875.94 147.52 896.20 202.00 C 897.28 205.52 899.34 208.73 899.70 212.47 C 890.75 212.40 881.80 212.47 872.86 212.41 C 871.03 212.91 870.60 210.90 870.32 209.65 C 859.43 162.70 848.15 115.84 837.12 68.93 C 834.91 58.79 831.96 48.82 830.21 38.59 Z" />
<path fill="#f26e35" opacity="1.00" d=" M 735.61 75.77 C 740.47 63.43 744.63 50.82 749.72 38.57 C 751.36 38.59 753.00 38.60 754.65 38.61 C 749.55 62.20 743.54 85.60 738.18 109.14 C 733.08 130.82 727.95 152.49 722.76 174.15 C 719.60 186.89 717.16 199.83 713.48 212.43 C 704.07 212.47 694.66 212.35 685.25 212.55 C 685.38 209.12 687.24 206.14 688.19 202.91 C 703.98 160.53 719.83 118.17 735.61 75.77 Z" />
<path fill="#f26e35" opacity="1.00" d=" M 784.77 74.70 C 789.74 74.49 794.71 74.62 799.68 74.62 C 800.54 83.14 800.14 91.74 801.15 100.24 C 801.46 105.32 801.65 110.41 801.55 115.49 C 795.47 115.42 789.39 115.34 783.31 115.53 C 783.24 101.90 784.77 88.33 784.77 74.70 Z" />
<path fill="#f26e35" opacity="1.00" d=" M 781.29 149.07 C 781.77 144.20 781.05 139.22 782.43 134.47 C 789.12 134.54 795.81 134.48 802.50 134.51 C 803.86 140.27 803.18 146.21 803.75 152.04 C 804.75 160.32 804.06 168.70 805.22 176.96 C 805.45 188.79 806.64 200.57 806.68 212.40 C 797.22 212.47 787.75 212.43 778.30 212.45 C 777.95 199.60 779.61 186.84 779.79 174.01 C 780.73 165.72 780.24 157.34 781.29 149.07 Z" />
</g>
<g id="#979899ff">
<path fill="#979899" opacity="1.00" d=" M 846.87 250.74 C 859.37 246.95 873.81 250.00 883.65 258.61 C 881.10 260.94 878.64 263.35 876.12 265.72 C 869.04 259.62 858.87 258.41 850.06 260.78 C 841.81 263.39 834.98 269.77 831.74 277.78 C 828.52 286.62 829.44 297.19 835.14 304.83 C 838.96 309.74 843.98 314.05 850.13 315.65 C 856.76 317.75 864.05 317.02 870.40 314.30 C 877.94 310.76 883.59 303.85 886.07 295.95 C 877.60 295.76 869.13 295.81 860.67 295.93 C 860.69 292.70 860.74 289.48 860.85 286.26 C 872.88 286.19 884.91 286.29 896.95 286.30 C 897.89 295.94 894.46 305.91 888.29 313.33 C 882.41 320.47 873.88 325.16 864.83 326.82 C 853.18 328.52 840.46 325.50 832.04 316.95 C 816.30 303.91 815.03 277.61 828.80 262.74 C 833.54 257.15 839.70 252.61 846.87 250.74 Z" />
<path fill="#979899" opacity="1.00" d=" M 1023.13 249.49 C 1026.44 249.62 1029.75 249.62 1033.07 249.49 C 1033.32 275.65 1033.20 301.82 1033.12 327.98 C 1016.37 310.00 999.60 292.05 982.68 274.24 C 983.60 291.74 982.60 309.30 983.20 326.82 C 979.64 326.85 976.09 326.78 972.56 326.45 C 972.78 301.10 972.95 275.72 972.47 250.37 C 974.83 249.77 975.76 252.53 977.24 253.81 C 984.82 261.88 992.78 269.60 1000.18 277.85 C 1007.70 285.93 1015.68 293.57 1022.84 301.98 C 1023.21 284.49 1022.58 266.97 1023.13 249.49 Z" />
<path fill="#979899" opacity="1.00" d=" M 1330.85 248.98 C 1339.35 268.25 1347.22 287.80 1355.78 307.04 C 1358.43 313.53 1361.27 319.93 1363.82 326.45 C 1360.12 326.67 1356.41 326.56 1352.72 326.44 C 1351.17 322.24 1349.02 318.29 1347.60 314.05 C 1339.74 313.79 1331.89 314.05 1324.04 313.92 C 1320.77 313.95 1317.44 313.67 1314.26 314.47 C 1312.46 318.43 1310.87 322.49 1309.11 326.47 C 1305.46 326.57 1301.82 326.68 1298.19 326.39 C 1308.65 300.43 1320.31 274.93 1330.85 248.98 M 1318.41 305.45 C 1326.65 305.90 1334.91 305.51 1343.16 305.64 C 1342.07 301.44 1340.00 297.60 1338.49 293.55 C 1335.94 287.45 1334.10 281.05 1331.05 275.18 C 1326.10 284.93 1323.06 295.54 1318.41 305.45 Z" />
<path fill="#979899" opacity="1.00" d=" M 683.35 326.62 C 683.45 300.91 683.23 275.19 683.47 249.48 C 698.03 249.78 712.60 249.47 727.16 249.65 C 727.11 253.04 727.10 256.43 727.00 259.82 C 715.89 259.82 704.77 259.71 693.66 259.90 C 693.66 267.56 693.69 275.22 693.60 282.88 C 701.95 283.43 710.33 282.68 718.68 283.27 C 718.78 286.66 718.80 290.06 718.42 293.43 C 710.13 293.34 701.83 293.17 693.56 293.54 C 693.70 301.15 693.72 308.77 693.61 316.39 C 704.78 316.71 715.97 316.56 727.15 316.41 C 727.07 319.87 727.06 323.34 727.25 326.81 C 712.62 326.71 697.98 326.96 683.35 326.62 Z" />
<path fill="#979899" opacity="1.00" d=" M 742.94 249.73 C 746.37 251.64 748.64 254.93 751.28 257.74 C 758.33 265.35 765.64 272.72 772.83 280.19 C 779.30 287.61 786.45 294.39 793.21 301.53 C 793.10 284.25 793.23 266.98 793.13 249.70 C 796.54 249.57 799.96 249.54 803.38 249.53 C 803.47 275.53 803.63 301.55 803.31 327.54 C 800.87 326.12 799.49 323.43 797.47 321.53 C 782.72 305.90 767.93 290.31 753.36 274.51 C 753.22 274.67 752.96 275.01 752.83 275.17 C 753.58 279.74 753.16 284.38 753.26 288.98 C 753.33 301.47 753.07 313.96 753.41 326.45 C 750.01 326.88 746.59 326.86 743.18 326.73 C 742.61 301.08 743.09 275.40 742.94 249.73 Z" />
<path fill="#979899" opacity="1.00" d=" M 913.15 249.70 C 927.61 249.37 942.08 249.86 956.55 249.44 C 956.82 252.89 956.85 256.36 956.82 259.82 C 945.67 259.92 934.52 259.57 923.39 259.98 C 923.44 267.60 923.44 275.22 923.35 282.85 C 931.74 283.37 940.15 282.79 948.54 283.23 C 948.55 286.62 948.54 290.02 948.34 293.41 C 940.03 293.30 931.72 293.36 923.41 293.36 C 923.48 301.06 923.34 308.75 923.47 316.45 C 934.52 316.60 945.59 316.65 956.64 316.43 C 956.88 319.83 956.85 323.24 956.72 326.65 C 942.23 326.93 927.73 326.75 913.24 326.80 C 912.99 301.10 913.16 275.40 913.15 249.70 Z" />
<path fill="#979899" opacity="1.00" d=" M 1052.18 249.91 C 1055.60 249.62 1059.05 249.61 1062.50 249.74 C 1062.31 260.75 1062.56 271.77 1062.40 282.78 C 1073.74 283.49 1085.12 282.79 1096.48 283.17 C 1096.94 272.04 1096.64 260.87 1096.63 249.73 C 1099.94 249.91 1103.51 249.11 1106.69 250.05 C 1107.42 275.53 1106.69 301.08 1107.06 326.58 C 1103.55 326.61 1100.05 326.61 1096.55 326.49 C 1096.81 315.42 1096.74 304.34 1096.60 293.27 C 1085.21 293.35 1073.82 293.05 1062.44 293.44 C 1062.46 304.46 1062.42 315.49 1062.45 326.51 C 1059.01 326.67 1055.57 326.68 1052.15 326.36 C 1052.26 300.88 1052.20 275.39 1052.18 249.91 Z" />
<path fill="#979899" opacity="1.00" d=" M 1155.43 250.21 C 1155.70 250.22 1156.24 250.25 1156.50 250.27 C 1166.92 275.77 1178.32 300.88 1188.69 326.41 C 1185.03 326.65 1181.37 326.56 1177.72 326.47 C 1175.86 322.44 1174.11 318.35 1172.53 314.20 C 1161.60 313.57 1150.64 314.28 1139.72 313.77 C 1137.64 317.89 1135.80 322.13 1134.15 326.44 C 1130.45 326.53 1126.75 326.56 1123.07 326.57 C 1125.54 318.93 1129.41 311.81 1132.32 304.33 C 1140.04 286.30 1147.56 268.17 1155.43 250.21 M 1148.83 292.02 C 1147.21 296.59 1144.75 300.88 1143.86 305.69 C 1151.95 305.54 1160.03 305.75 1168.12 305.63 C 1166.53 300.28 1163.98 295.30 1162.09 290.06 C 1160.13 285.05 1158.59 279.85 1155.97 275.14 C 1152.99 280.49 1151.19 286.39 1148.83 292.02 Z" />
<path fill="#979899" opacity="1.00" d=" M 1204.76 250.68 C 1205.01 250.44 1205.52 249.96 1205.77 249.72 C 1214.17 249.62 1222.58 249.67 1230.98 249.79 C 1243.11 250.33 1255.69 260.18 1255.39 273.05 C 1256.02 280.00 1253.74 287.03 1249.11 292.24 C 1246.43 295.14 1242.66 296.53 1239.03 297.79 C 1239.70 300.50 1241.47 302.71 1242.95 305.03 C 1247.31 311.78 1251.60 318.57 1256.12 325.20 C 1256.04 325.53 1255.88 326.17 1255.81 326.49 C 1251.81 326.79 1247.81 326.51 1243.82 326.50 C 1238.92 318.40 1233.54 310.60 1228.53 302.58 C 1225.94 297.71 1219.62 300.08 1215.19 299.79 C 1215.14 308.73 1215.21 317.67 1215.17 326.61 C 1211.62 326.60 1208.09 326.60 1204.56 326.45 C 1205.07 301.21 1204.61 275.94 1204.76 250.68 M 1215.12 259.96 C 1215.19 269.79 1214.87 279.63 1215.30 289.45 C 1222.00 288.84 1228.89 290.24 1235.48 288.58 C 1240.91 286.04 1245.05 280.10 1244.54 273.96 C 1244.51 269.48 1242.22 264.97 1238.41 262.57 C 1231.35 258.39 1222.87 260.31 1215.12 259.96 Z" />
<path fill="#979899" opacity="1.00" d=" M 1271.86 249.69 C 1275.26 249.69 1278.67 249.67 1282.09 249.63 C 1281.97 275.28 1282.16 300.94 1282.00 326.59 C 1278.65 326.63 1275.31 326.66 1271.98 326.69 C 1271.57 301.03 1271.82 275.35 1271.86 249.69 Z" />
</g>
</svg>
